<svg xmlns="http://www.w3.org/2000/svg" width="64" height="19" viewBox="0 0 64 19">
    <path fill="#00080F" fill-rule="nonzero" d="M49.076 16.76V8h2.226v11H36.063V8h2.319v8.76h4.058v-5.749h2.475v5.75h4.161zM11.175 8h4.586c2.52 0 4.049 1.536 4.049 3.794 0 2.517-1.907 3.687-4.278 3.687h-2.018V19h-2.34V8zm2.34 5.5h1.913c1.258 0 2.023-.757 2.023-1.726 0-1.078-.81-1.777-2.068-1.777h-1.869V13.5zm10.078-1.51h2.364c2.762-.014 4.011 1.368 4.011 3.4 0 2.146-1.56 3.61-4.17 3.61h-4.465V8h2.26v3.99zm0 4.988h2.174c1.21 0 1.92-.63 1.92-1.573 0-.96-.71-1.405-1.936-1.405h-2.158v2.978zm7.9 2.022V8h2.278v11h-2.279zM43.677 0l.002.002 8.637 5.183-2.19 1.315-6.449-3.873L37.234 6.5l-2.186-1.317 8.63-5.181V0v.002V0zM59.29 8L64 19h-2.65l-.893-2.206H55.8L54.904 19h-2.587l4.708-11h2.265zm-2.59 6.5h2.928l-1.463-3.489-1.466 3.489zM9.65 8l-5.072 5.332L9.65 19H6.482l-4.243-4.67V19H0V8h2.24v4.388L6.481 8h3.169z"/>
</svg>
