<svg width="240" height="44" xmlns="http://www.w3.org/2000/svg"><path d="M236.319 12.833V32.23H240V44h-4.814v-7.156h-18.878V44h-4.814V32.23h2.643c.692-.91 1.266-2.385 1.723-4.425.456-2.04.684-4.143.684-6.31v-8.662h19.775zm-193.1-.916c7.11 0 12.873 5.746 12.873 12.833 0 7.088-5.764 12.833-12.874 12.833S30.345 31.838 30.345 24.75c0-7.087 5.764-12.833 12.873-12.833zM66.206 0v37.583H60.69V0h5.517zm18.498 11.917c4.59 0 8.619 2.356 10.927 5.91l-.004.004-.058.057-4.03 3.985-9.746 9.635a7.471 7.471 0 002.911.587 7.433 7.433 0 006.156-3.247l3.967 3.922a13.001 13.001 0 01-10.123 4.813 13.02 13.02 0 01-7.002-2.03l-.006.006-.027-.027a12.97 12.97 0 01-3.872-3.828l-.026-.025a12.74 12.74 0 01-2.048-6.929c0-7.088 5.812-12.833 12.981-12.833zm23.868 0c4.75.006 7.598 2.33 9.192 3.764l-3.93 3.872c-1.436-1.504-3.445-2.076-5.189-2.146-2.28-.093-3.611.68-3.672 1.865-.068 1.314 1.009 1.897 3.532 2.446 3.324.723 5.085 1.04 6.842 2.021 2.684 1.499 3.293 4.023 3.272 5.927-.049 4.476-4.255 7.917-10.045 7.917-5.603 0-8.887-3.355-10.184-4.832l3.939-3.864c1.497 1.907 4.005 3.121 6.25 3.21 3.03.12 4.535-.848 4.47-2.38-.078-1.836-2.63-2.131-5.923-2.875-6.037-1.363-7.783-3.702-7.723-7.42.08-4.975 4.52-7.511 9.169-7.505zm26.604 0h.002a9.903 9.903 0 017.364 3.576l-.003-2.825h5.506V36.84h-5.506v-2.832a9.905 9.905 0 01-7.363 3.573h.004a.01.01 0 01-.007.002c-7.11 0-12.875-5.746-12.875-12.833s5.765-12.833 12.875-12.833zM5.475 0v17.954L20.756 0h7.203l-13.63 16.025 15.096 21.558h-7.033L10.472 20.56l-4.997 5.874v11.142H0V0h5.475zm177.514 3.667v5.068h-14.823v28.848h-5.407V3.667h20.23zm6.197 9.166v12.084l-.24 4.659h.24l11.513-16.743h5.278v24.75h-5.278V25.5l.24-4.658h-.24l-11.513 16.742h-5.278v-24.75h5.278zm42.083 4.661h-9.675v4.426c0 1.852-.182 3.68-.543 5.484-.362 1.806-.873 3.414-1.534 4.826h11.752V17.494zm-96.095-.084c-4.07 0-7.368 3.289-7.368 7.345 0 4.056 3.299 7.344 7.368 7.344 4.068 0 7.367-3.288 7.367-7.344 0-4.056-3.299-7.345-7.367-7.345zm-91.956-.004c-4.068 0-7.366 3.288-7.366 7.344 0 4.056 3.298 7.345 7.366 7.345s7.367-3.289 7.367-7.345c0-4.056-3.299-7.344-7.367-7.344zm41.487 0c-4.102 0-7.428 3.288-7.428 7.344 0 1.021.212 1.993.593 2.877l9.742-9.632a7.464 7.464 0 00-2.907-.589z" fill="#FFF" fill-rule="evenodd"/></svg>