<svg xmlns="http://www.w3.org/2000/svg" width="69" height="19" viewBox="0 0 69 19">
    <path fill="#00080F" fill-rule="nonzero" d="M19.649 7.26l4.704 11.478h-2.647l-.892-2.301h-4.65l-.897 2.301h-2.583L17.386 7.26h2.263zm-2.588 6.783h2.925l-1.462-3.64-1.463 3.64zm8.814-6.783H30.9c1.442 0 2.558.41 3.304 1.164.63.64 1.006 1.542 1.006 2.657 0 1.852-1.023 3.017-2.464 3.558l2.769 4.1H32.6l-2.46-3.674h-1.894v3.673h-2.371V7.26zM30.739 13c1.214 0 2.007-.907 2.007-1.9 0-1.075-.842-1.775-2.056-1.775h-2.444V13h2.493zM0 7.26h2.545l3.035 4.775L8.627 7.26h2.535v11.478H8.866v-7.494L5.58 16.117l-3.315-4.823v7.444H0V7.26zm46.676 0l-5.067 5.564 5.067 5.914h-3.165l-4.237-4.873v4.873h-2.237V7.26h2.237v4.579L43.51 7.26h3.165zm16.326 2.318H59.36V7.26H69v2.318h-3.644v9.16h-2.354v-9.16zm-15.818 3.444C47.184 9.69 49.71 7 53.026 7a5.725 5.725 0 0 1 4.812 2.573l-6.428 6.696a3.499 3.499 0 0 0 1.598.388c1.412 0 2.455-.711 3.094-1.808l1.722 1.545C56.786 18 55.094 19 53.026 19c-3.298 0-5.842-2.647-5.842-5.978zm2.72 1.702l4.788-4.971a3.499 3.499 0 0 0-1.666-.415c-2.026 0-3.529 1.635-3.529 3.639 0 .633.144 1.228.408 1.747z"/>
</svg>
