<svg enable-background="new 0 0 120 90" height="90" viewBox="0 0 120 90" width="120" xmlns="http://www.w3.org/2000/svg"><path d="m0 0v90h120v-90zm73.3 53.4c0 1.7-1.2 3-2.8 3h-21c-1.5 0-2.8-1.3-2.8-3v-15.1c0-1.7 1.2-3 2.8-3h2.7l.1-.1 1.6-1.7h5.5l1.6 1.7.1.1h9.3c1.5 0 2.8 1.3 2.9 3z" opacity=".05"/><path d="m70.4 35.4h-9.3l-.1-.1-1.6-1.7h-5.5l-1.6 1.7-.1.1h-2.7c-1.5 0-2.8 1.3-2.8 3v15.1c0 1.7 1.2 3 2.8 3h21c1.5 0 2.8-1.3 2.8-3v-15.2c-.1-1.6-1.3-2.9-2.9-2.9zm1.9 18c0 1.1-.8 2-1.8 2h-21c-1 0-1.8-.8-1.8-2v-15.1c0-1.1.8-2 1.8-2h3.2l.3-.3 1.3-1.4h4.7l1.3 1.4.1.1.3.3h9.8c1 0 1.8.9 1.9 2v15z" opacity=".2"/><ellipse cx="68.3" cy="40.1" opacity=".05" rx="1.3" ry="1.3"/><circle cx="56.3" cy="46.5" opacity=".05" r="5.3"/><path d="m56.3 40.2c-3.5 0-6.3 2.8-6.3 6.3s2.8 6.3 6.3 6.3 6.3-2.8 6.3-6.3-2.8-6.3-6.3-6.3zm0 11.6c-3 0-5.3-2.3-5.3-5.3s2.4-5.3 5.3-5.3 5.3 2.4 5.3 5.3-2.4 5.3-5.3 5.3z" opacity=".2"/><path d="m68.3 37.8c-1.3 0-2.3 1-2.3 2.3s1 2.3 2.3 2.3 2.3-1 2.3-2.3-1-2.3-2.3-2.3zm0 3.7c-.7 0-1.3-.6-1.3-1.3s.6-1.3 1.3-1.3 1.3.6 1.3 1.3-.6 1.3-1.3 1.3z" opacity=".2"/></svg>